<svg id="SvgjsSvg1046" width="550" height="400" xmlns="http://www.w3.org/2000/svg" version="1.1" xmlns:xlink="http://www.w3.org/1999/xlink" xmlns:svgjs="http://svgjs.com/svgjs"><defs id="SvgjsDefs1047"></defs><g id="SvgjsG1048"><svg xmlns="http://www.w3.org/2000/svg" enable-background="new 0 0 3500 2000" viewBox="0 0 3500 2000" width="550" height="550"><path fill="#ffbf80" d="M989.1,1245.5l162.1-106c4.1-2.7,9.3-3.4,14-2l482.5,146.9c5.4,1.6,9,6.6,8.9,12.2  c-1.1,45.9-5.7,245.5-5.7,312.7c0,76.2-113.1,145-132.5,157.5c-34.7,22.4-152.7,97.2-270.5,81c0,0-206.5-142.6-231.2-188.5  c-25.5-47.5-37-109.8-37-179.2v-217.2C979.7,1255.9,983.3,1249.3,989.1,1245.5z" class="colorffbf80 svgShape"></path><path fill="#ffd19f" d="M990.7,1255.4l504,172.7c6.7,2.3,11.3,8.7,11.3,15.8v233.4c0,76.2-90.4,119.6-109.8,132.1  c-34.7,22.4-131,60.5-203.8,23.5c-65.2-33.1-151.2-127.7-175.8-173.6c-25.5-47.5-37-109.8-37-179.2v-216.8  C979.7,1257.6,985.3,1253.6,990.7,1255.4z" class="colorffd19f svgShape"></path><path fill="#ffb471" d="M1297.4,1550c0,41.2-33.1,61.6-69.8,49c-39-13.3-70.8-57-70.8-98.2s31.9-64.5,70.8-51  C1270,1464.4,1297.4,1508.8,1297.4,1550z" class="colorffb471 svgShape"></path><path fill="#ffb471" d="M1206.8,1574l-25,94.2c-1.7,6.3,1.7,12.8,7.9,15l71,25.5c5.9,2.1,11.9-2.7,11.1-8.9l-14.2-109.1L1206.8,1574z" class="colorffb471 svgShape"></path><path fill="#ffc69f" d="M1338.3,844.1c-63.7-16.3-126.4-5.4-172,29.9c-37.4,29-59.3,71.9-62.5,121.9l-0.5,13.2v189.2  c0,27.6,3.1,45.2,37,57.7c29.2,10.8,63.7-11.6,63.7-32.5l-0.6-172.8c0-24.6-0.2-79.4,24.3-97.7c20.9-15.6,52.7-20.5,85.7-12  c65.4,16.8,134.8,83.1,134.8,173.1l0,188.2c-1,30.7,6.7,58.5,50.5,64c27.4,3.4,49.7-14.6,49.7-42.9v-209.3  C1548.4,988.9,1460,875.3,1338.3,844.1z" class="colorffc69f svgShape"></path><path fill="#4a90f4" d="M2982.4,574.4c-64.1-2.1-120.5-43.4-144.5-102.9l-6.7-16.7c-1.7-4.3,0.3-9.1,4.6-10.9l38.7-15.6   c4.3-1.7,9.1,0.3,10.9,4.6l6.9,17.1c15.6,38.5,52.2,65.4,93.7,66.1c62.5,1.1,112.6-54.4,102.4-118.6c-7.5-47.2-48.7-86-100.3-85.3   c-18.9,0.3-26.4,1.1-26.5,1.1l-47.6,5.5c-13.6,1.6-21.1-15.2-10.9-24.3l129.4-116c-18.5,1.1-38.4,1.8-58.9,1.8   c-76.3,0-133.3-14.8-133.3-14.8c-4.5-0.8-7.6-5.1-6.8-9.7l7.3-41.1c0.8-4.5,5.1-7.6,9.7-6.8c0,0,52.9,13.9,125,13.9   c50.4,0,100.4-4.5,141.2-9.7c27.6-3.5,43.2,30.6,22.5,49.1L3030.2,259c61.5,16.4,109.3,70.2,116.9,136   C3158.5,493.8,3079.6,577.6,2982.4,574.4z" class="color4a90f4 svgShape"></path><path fill="#8eaeed" d="M1403.8,348.7c0.1-2.8,0.2-5.5,0.2-8.3c0-128.4-104.1-232.5-232.5-232.5c-96.7,0-179.6,59-214.6,143  c-31.7-25.4-72-40.7-115.8-40.7c-102.3,0-185.2,82.8-185.5,185c-30.6-25.3-69.8-40.5-112.6-40.5c-97.6,0-194.4,171.9-194.4,269.5  c0,55.5,24.9,80.2,194.4,83.9c96.1,2.1,711.1-0.5,796.2,0c164.4,0.9,225.9-29.4,235.1-89C1593.1,497.4,1517.2,363.4,1403.8,348.7z" class="color8eaeed svgShape"></path><path fill="#638ed3" d="M1371.8,448.7c-47.5-10.4-93.1-6.4-140.5,6.3c-45.8,12.1-88.9,31.6-133.2,46.8c-21.9,8.3-45.2,11-68.4,9.5  c-37.2-2.4-69.7-14.3-90.9-28.3c6.1-8.6,11.1-18.2,13.6-28.9c5.4-22.7-8.5-44.2-26.6-45.1c-21.7-1.1-28.1,27.4-20.7,46.4  c4.8,12,13.9,20.9,23.4,28.2c0,0,0,0,0.1,0c-13.9,17.2-34,31.8-52.5,39.9c-20.8,9.1-44.2,12.8-65.1,4.2  c-32.5-13.4-61.8-53.5-112.8-83.2c-40.5-23.8-90.1-38.3-137.7-34.7c-54.7,4-99,30.7-123.4,68.2c-28.3,43-27.7,96.1-4.5,140.3  c25.5,46.5,73.1,59.4,126.5,59.8c62.5,0.2,140.1-17.4,210.2-31.6c84.8-17.3,194-39.1,276.4-17c45.9,12.4,81.8,37.7,106.3,79.3  c23.3,39.2,33,86.9,37.2,132l0,0.1l0,0c0.3,3.6,3.5,6.2,7.1,5.9c3.6-0.3,6.2-3.5,5.9-7.1c-4.4-47.3-14.7-96.4-39.1-137.4  c-25.5-43.1-63.5-71.4-114-84.9c-84.9-22.7-194.9-0.7-282.2,17.1c-70.7,14.4-146.6,31.8-207.7,31.6c-48.2-0.2-92.6-10.8-116.1-53.4  c-21.3-40.3-22.4-88.7,3.4-128.5c24.8-38.6,68.5-60.3,114.8-63.9c45.3-3.6,93,10,132.1,32.7c50.7,29.2,79.4,68.9,114.3,83  c23.3,9.5,48.9,5.6,71.8-4.7c21.7-9.7,40.8-24.5,55.6-43.2c22.4,14.5,56,26.5,94.4,28.7c17.6,0.9,35.9-0.4,53.3-4.9  c5.8-1.5,11.4-3.5,17-5.4c44.5-15.6,87.4-35.2,132.7-47.4c46.8-12.8,91.7-16.9,138.6-6.9c1,0.2,1.9-0.4,2.1-1.4  C1373.4,449.9,1372.8,448.9,1371.8,448.7z M932.4,478.5c-9-6.9-17.2-15.3-21-25.5c-5.2-13.7-2.1-38,14.1-36.8  c12.6,0.7,24.3,17,19.6,36.3C942.9,461.4,938.5,470.3,932.4,478.5C932.4,478.6,932.4,478.6,932.4,478.5z" class="color638ed3 svgShape"></path><path fill="#abbaf4" d="M1009.2,664.2c5.4-0.5,27.1-0.6,57.8-0.3c19-102.1,108.5-179.4,216.1-179.4c46.9,0,90.3,14.7,126,39.7  c30.5-137.4,152.9-240.2,299.5-240.2c158.1,0,288.3,119.6,305,273.3c85.9-6.7,146.3,50,163.7,131.2c41.1-34.9,94.3-56.1,152.4-55.9  c194.1,0.6,331.8,199.8,331.8,385.7c0,77.9-52.5,115.4-331.8,115.4c-113.7,0-1191,0-1320.6,0c-162.5,0-237.6-52.1-237.6-147.7  C771.6,856.4,845.8,678.6,1009.2,664.2z" class="colorabbaf4 svgShape"></path><path fill="#6fb8ef" d="M2874.1,903.5c-5.1,0-10.2,0.3-15.3,0.7c-0.5-130.7-106.6-236.5-237.4-236.5c-104.8,0-193.6,67.9-225.1,162  c-32.3-20.1-70.4-31.8-111.2-31.8c-104,0-190.3,75.4-207.4,174.6c-29.3-27.3-68.6-43.9-111.9-43.9c-90.8,0-194,104.3-193.3,238.3  c0.2,45.5,9.2,90.6,193.3,90.6c73.6,0,827,0,908.2,0c162.6,0,173.2-28.4,182-92.5C3070.9,1057.8,2999.8,903.5,2874.1,903.5z" class="color6fb8ef svgShape"></path><path fill="#7b92db" d="M2287.4,721.9c-22.4,0.3-44.5,4.4-65.9,10.4c-63.3,17.5-124.1,51.3-177.1,91.5c-14.8,11.1-29.6,25.4-53.9,38.4  c-39,20.3-88.3,29.6-124.4,4.2c-14.1-9.7-23.7-22.8-30.1-37.8c10.7-7.1,21.3-15.1,31.6-24.1c19.8-17.2,30.2-30.6,35-36.4  c15.7-17.5,26.5-38.8,25.4-62.5c-0.7-18.7-10.4-36.7-22.5-46.1c-7.9-7.2-22.9-12.4-33.3-10.4c-5.3,0.4-13.5,3.7-16.8,6.2  c-27,17.7-34,60.3-35.9,92.6c-1.2,26,0.7,52.9,9.2,76.2c-22.9,14.3-56.4,30.4-98,36.1c-44.7,6.5-87.3,1.8-129.8-10.8  c-26.5-8-52.2-18.9-76.4-32.5c2.5-5.9,4.8-11.9,6.8-18c10.7-33.3,14.8-67.5,10.2-101.5c-2.4-21.4-9.4-47.1-19.8-65.6  c-9.4-19-28.1-39.3-49.4-48.7c-26.9-12-53.5-5.9-68.5,9.8c-17.1,17.4-20.5,43.1-17.4,67.1c2.3,20.8,13.4,51.3,22,64.8  c10.8,17.9,14.6,21.1,19.9,27.8c14.6,17.4,31.6,32.5,49.7,46c9.9,7.4,20.1,14.2,30.7,20.5c-14.7,31.1-36.5,58.8-64.3,78.5  c-35.8,25.2-76.6,34.4-121,26.4l-0.1,0l0,0c-4.1-0.7-8,2-8.7,6.1c-0.7,4.1,2,8,6.1,8.7c48.5,8.5,93.4-2,132.1-29.6  c29.6-21.3,52.4-50.6,67.8-83.3c24.6,13.6,50.8,24.5,77.8,32.4c44.4,12.9,88.2,17.2,133.7,10.3c33.5-4.8,67.4-16.8,99.7-37.3  c6.8,15.4,17,28.9,31.7,38.9c37.8,26.2,88.6,16.7,129-4.7c24.7-13.4,41.6-29.4,54.3-39.1c52.6-40.3,112.8-74.3,175.5-92.1  c21.3-6,43.2-10.3,65.3-10.7l0,0c0.5,0,1-0.5,1-1C2288.4,722.3,2288,721.9,2287.4,721.9z M1484.1,790.5  c-17.4-13.2-33.8-28-47.7-44.7c-5-6.5-8.3-9.2-18.6-26.4c-8.1-12.5-18.4-41.8-20.3-60.7c-2.6-20.5,0.1-43,14.5-57.6  c11.9-12.3,33.3-17,55.4-7c18.7,8.4,35.3,26.9,43.3,43.6c9.7,17.4,15.9,41.8,18,61.3c4.1,31.8,0.2,64-10.2,95.7  c-1.7,5.2-3.7,10.3-5.8,15.3C1502.9,804,1493.3,797.5,1484.1,790.5z M1825.2,748.4c1.9-29.6,8.7-71.6,33.6-87.7  c2.7-2.1,10-4.9,14.2-5.2c8.7-1.7,21.8,3.1,28.4,9.2c10.7,8.4,19.3,24.7,19.8,41.3c0.9,22-9.5,41.4-24.1,57.5  c-4.8,5.6-14.9,18.5-34.4,35.3c-0.7,0.4-11.1,10.5-29.4,22.5C1825.4,798.9,1823.9,773,1825.2,748.4z" class="color7b92db svgShape"></path><path fill="#4a90f4" d="M2625.4 574.5c-49 0-90.3-20.6-119.5-59.7-30.3-40.5-45.7-98.3-45.7-172s15.4-131.5 45.7-172c29.2-39 70.6-59.7 119.5-59.7 49 0 90.3 20.6 119.5 59.7 30.3 40.5 45.7 98.3 45.7 172C2790.6 551.9 2675.1 574.5 2625.4 574.5zM2625.4 169.5c-67.9 0-106.8 63.2-106.8 173.3s38.9 173.3 106.8 173.3c88.3 0 106.8-94.2 106.8-173.3C2732.2 232.7 2693.3 169.5 2625.4 169.5zM2337.5 574.5h-41.7c-4.6 0-8.3-3.7-8.3-8.3V457.9h-199.7c-24.4 0-38.1-28.2-22.9-47.4l228.9-288.4c17.2-21.7 52.1-9.5 52.1 18.2v259.1h59.4c4.6 0 8.3 3.7 8.3 8.3v41.7c0 4.6-3.7 8.3-8.3 8.3h-59.4v108.2C2345.9 570.7 2342.1 574.5 2337.5 574.5zM2148.2 399.5h139.2V224.1L2148.2 399.5z" class="color4a90f4 svgShape"></path><path fill="#4ca1d6" d="M3009.1,1066.8c-31.9-16.9-72.6-30.5-108.2-38.7c-116.9-26.9-233.9-10.8-334.8,46.8  c-44.2,25-55.8,39.7-96.6,62c-49.3,26.9-110,45.2-162.9,27.8c-21.3-6.8-40.1-19.4-54.7-37.1c6.5-4.3,12.7-9.3,18.5-15.2  c35.2-35.1,62-110.7,51.8-163.5c-10.3-53.8-57.1-71.7-86.9-28.1c-26.9,39.4-31.3,119.4-12.1,170.5c4.4,11.6,10,22.2,16.5,31.7  c-23.2,12.8-50.1,16.8-78.5,16.5c-51.8-0.8-116.9-16.7-168.1-29.7c-32.3-8.4-39.4-8.6-57.6-10.3c-41.8-2.7-82,9-109.1,41.2  c-13.8,16.4-23.4,36.8-26.8,54.5c0,0,0,0.1,0,0.1c-0.7,4.1,2,8,6.1,8.8c4.1,0.7,8-2,8.8-6.1l0.1-0.4c2.7-14.7,10.8-33.1,22.9-47.8  c23.8-29,59.6-39.7,97.5-37.8c18.6,0.8,36.8,4.4,55.4,9.2c52.8,13,117.9,28.5,170.9,28.9c30.6,0.2,59.8-4.5,84.9-19  c15.5,18.9,35.6,32.4,58.7,39.7c55.1,17.7,117.1-1.3,167.6-29.2c41.3-23,52-37.3,96.3-62.6c99.6-57.6,215.5-74.2,331.8-48.2  c43.1,9.6,81.7,24.2,107.8,37.8l0,0c0.5,0.3,1.2,0.1,1.5-0.5C3009.8,1067.8,3009.6,1067.1,3009.1,1066.8z M2229.9,1088.9  c-20.6-55.7-10.2-130.4,12.2-163.3c25.8-37.4,62.8-20.9,71.3,25.1c9.4,50.3-17.3,122.4-50.1,154.6c-5.5,5.5-11.4,10.2-17.6,14.1  C2239.4,1110.4,2234.1,1100.2,2229.9,1088.9z" class="color4ca1d6 svgShape"></path><path fill="#ffc6bd" d="M833.6 1237.1l119.9 98.1c1.8 1.5 0 4.3-2.1 3.2l-138-69.6c-2.1-1-2.8-3.6-1.5-5.6l15.9-25.2C829.1 1236.1 831.8 1235.6 833.6 1237.1zM700.1 1461.3l229.6 47.9c3.5.7 3 5.8-.6 5.8l-233.9 2.9c-3.5 0-6.2-2.9-6-6.4l3.7-45C693.3 1463.1 696.7 1460.6 700.1 1461.3zM819.4 1771.5l172.7-67.4c2.6-1 4.5 2.6 2.1 4.1l-153.6 102.9c-2.3 1.5-5.4.8-6.7-1.7l-16.9-31.4C815.6 1775.6 816.7 1772.5 819.4 1771.5zM1623 1957.1l-107-146.2c-1.6-2.2 1.3-4.9 3.3-3.1l135.8 119.3c2 1.8 2.1 4.9.1 6.7l-25.4 23.9C1627.9 1959.6 1624.7 1959.3 1623 1957.1zM1874.9 1779.8l-217.5-88.6c-3.3-1.3-1.9-6.2 1.6-5.6l230.9 39.3c3.4.6 5.6 4 4.7 7.4l-11.8 43.6C1881.9 1779.3 1878.2 1781.1 1874.9 1779.8zM1835.8 1468.5l-152.1 8.5c-2.3.1-2.8-3.1-.6-3.8l146.3-41.1c2.2-.6 4.4.8 4.8 3l5.2 28.8C1839.7 1466.2 1838.1 1468.3 1835.8 1468.5z" class="colorffc6bd svgShape"></path><path fill="#919dce" d="M1246.9,1001.5c-8.4,33.6-61.7,46.9-105.6,29.9c-45.5-17.6-71.1-64.1-51.1-96.7c18.9-30.9,56-36.6,99.3-18.1  C1232.8,935,1255.6,966.3,1246.9,1001.5z" class="color919dce svgShape"></path><path fill="#ffd19f" d="M1548.4,1323.4v-209.3c0-125.3-88.4-238.8-210.1-270.1c-63.7-16.3-126.4-5.4-172,29.9  c-37.4,29-59.3,71.9-62.5,121.9l-0.4,9.9c9.8,10.7,22.7,19.8,37.9,25.7c20.5,7.9,43.1,9.3,62.2,5c0.5-27.4,3.7-68,24.2-83.3  c20.9-15.6,52.7-20.5,85.7-12c65.4,16.8,134.8,83.1,134.8,173.1l0,188.2c-1,30.7,6.7,58.5,50.5,64  C1526,1369.7,1548.4,1351.6,1548.4,1323.4z" class="colorffd19f svgShape"></path></svg></g></svg>
