<svg xmlns="http://www.w3.org/2000/svg" enable-background="new 0 0 2000 2000" viewBox="0 0 2000 2000" width="550" height="550"><linearGradient id="a" x1="1000" x2="1000" y1="1743.217" y2="-111.783" gradientUnits="userSpaceOnUse"><stop offset="0" stop-color="#fefefd" class="stopColorfefefd svgShape"></stop><stop offset="1" stop-color="#ebf3ff" class="stopColorebf3ff svgShape"></stop></linearGradient><path fill="url(#a)" d="M1927.5,1000c0,512.2399902-415.2600098,927.5-927.5,927.5S72.5,1512.2399902,72.5,1000	c0-196.4899902,61.0999756-378.7200317,165.3499756-528.710022c2.0300293-2.9199829,4.0700073-5.8200073,6.1400146-8.710022
	c57.0700073-80.1599731,126.5900269-150.8599854,205.7200317-209.2599487
	c7.5700073-5.5900269,15.2199707-11.0599976,22.9699707-16.4200439C622.4000244,133.2299805,804.1099854,72.5,1000,72.5
	c83.8000488,0,164.9899902,11.1099854,242.1999512,31.9400024
	c102.6000977,27.6799927,198.1500244,72.5200195,283.4000244,131.2600098
	c20.3000488,13.9899902,40.0200195,28.7599487,59.1099854,44.289978
	c69.3000488,56.3399658,130.3100586,122.5,180.9200439,196.3399658C1867.75,625.3499756,1927.5,805.7000122,1927.5,1000z"></path><linearGradient id="b" x1="997.446" x2="997.446" y1="1671.36" y2="1140.963" gradientUnits="userSpaceOnUse"><stop offset="0" stop-color="#fefefd" class="stopColorfefefd svgShape"></stop><stop offset=".84" stop-color="#ebf3ff" class="stopColorebf3ff svgShape"></stop></linearGradient><path fill="url(#b)" d="M1920.0705566,1117.9356689
	c-102.2144775-44.6578369-235.2943115-66.0406494-318.4187012-34.8901367
	c-77.9855957,29.2247314-65.4414062,87.2347412-145.4902344,111.2030029
	c-129.1508789,38.6699219-218.6148682-95.3220215-410.7965088-88.9622803
	c-170.989502,5.6582031-230.2662964,116.0339355-359.4465332,88.9622803
	c-80.5651855-16.8837891-95.8201294-67.8438721-153.1702271-103.7893066
	c-96.099884-60.2322998-280.5669556-59.6014404-457.9268494-25.1412354
	c16.1506958,232.0910645,117.6679916,440.6387939,273.3920898,594.4831543
	c175.1634827,32.4003906,365.7452087,49.7016602,551.6612549,42.8039551
	c326.7023926-12.1209717,657.131958-99.6210938,882.197998-203.8007812
	C1854.0998535,1386.1085205,1902.4460449,1256.8172607,1920.0705566,1117.9356689z"></path><path fill="#d0dff3" d="M1725.3349609,1700.4772949c0,25.2468262-306.9575195,45.7143555-685.6085205,45.7143555
	s-685.6086426-20.4675293-685.6086426-45.7143555c0-25.2458496,306.9573975-45.7130127,685.6086426-45.7130127
	S1725.3349609,1675.2314453,1725.3349609,1700.4772949z" class="colord0dff3 svgShape"></path><path fill="#d8e2f4" d="M814.8743896,537.6074219c-13.8095703-13.8102417-32.8885498-22.3514404-53.961731-22.3514404h-75.9293213
	c-11.3095703-51.9963379-57.5418091-90.959259-112.9265137-90.959259s-101.616272,38.9629211-112.926178,90.959259h-20.4294434
	c-21.0734863,0-40.1514587,8.5411987-53.9610291,22.3514404c-13.8102722,13.8099365-22.3518066,32.8885498-22.3518066,53.9613647
	c0,23.3099365,10.4506836,44.178833,26.9222412,58.1767578c13.3105164,11.3115845,30.5535278,18.1367798,49.3905945,18.1367798
	h322.2114563c21.0731812,0,40.1521606-8.5415649,53.961731-22.3518066
	c13.8102417-13.8095703,22.3518066-32.8882446,22.3518066-53.961731
	C837.2261963,570.4959717,828.6846313,551.4173584,814.8743896,537.6074219z" class="colord8e2f4 svgShape"></path><path fill="#ffffff" d="M1584.7099609,279.9899902c-3.0100098,5.6500244-6.6899414,10.8800049-10.9399414,15.5899658
	c-14.2700195,15.8100586-34.9200439,25.7400513-57.8900146,25.7400513h-329.1400146
	c-21.5300293,0-41.0100098-8.7200317-55.1199951-22.8300171s-22.8299561-33.5999756-22.8299561-55.1199951
	c0-15.3500366,4.4299316-29.6699829,12.0899658-41.7299805c13.8299561-21.7700195,38.1600342-36.2300415,65.8599854-36.2300415
	h20.8100586c5.1699219-23.789978,17.5100098-44.9099731,34.6499023-60.9699707
	c102.6000977,27.6799927,198.1500244,72.5200195,283.4000244,131.2600098
	C1545.9000244,249.6900024,1565.6199951,264.4599609,1584.7099609,279.9899902z" class="colorfff svgShape"></path><path fill="#50c6a1" d="M402.0387268 1493.5020752c4.9658203 27.2600098 14.4668579 48.3000488 28.5139465 63.098877 14.0274353 14.7989502 34.4985352 22.1983643 61.4045105 22.1983643 31.0044861 0 54.6074524-10.9168701 70.8418884-32.7507324 16.2258911-21.8337402 24.3432617-49.3187256 24.3432617-82.4440918 0-32.5372314-7.6033936-60.0100098-22.8101807-82.444458-15.2047729-22.4128418-38.8931885-33.6312256-71.0549927-33.6312256-15.2176208 0-28.3753662 1.9084473-39.4860535 5.7169189-19.5905457 7.0345459-34.3579407 20.0845947-44.2983704 39.1303711l-112.3332825-5.2755127 44.7398376-352.182251h350.7657471v106.4035645h-260.353302l-22.8190002 139.3774414c19.3225708-12.6016846 34.3911133-20.9542236 45.2206116-25.0632324 18.1564026-6.7336426 40.2571411-10.1115723 66.3066711-10.1115723 52.68573 0 98.6375122 17.7370605 137.8643799 53.2017822 39.229248 35.4736328 58.8417969 87.0545654 58.8417969 154.7645264 0 58.9174805-18.8942871 111.5391846-56.664978 157.8446045-37.7798462 46.3162842-94.2825928 69.46875-169.5431213 69.46875-60.6208496 0-110.4007568-16.2679443-149.3399658-48.803833-38.9480286-32.5361328-60.6205444-78.7023926-65.0066528-138.498291H402.0387268zM1173.0067139 1107.9061279c32.6865234 57.1569824 49.0286865 138.3587646 49.0286865 243.5805664 0 105.232666-16.3421631 186.2833252-49.0286865 243.1411133-32.6866455 56.8682861-89.6199951 85.2971191-170.8082275 85.2971191-81.2017822 0-138.1347656-28.428833-170.8101807-85.2971191-32.6978149-56.8577881-49.0291138-137.9084473-49.0291138-243.1411133 0-105.2218018 16.3312988-186.423584 49.0291138-243.5805664 32.675415-57.1593018 89.6083984-85.7369385 170.8101807-85.7369385C1083.3867188 1022.1691895 1140.3200684 1050.7468262 1173.0067139 1107.9061279zM928.3324585 1519.6680908c12.0112305 38.8416748 36.6309814 58.2519531 73.8660278 58.2519531 37.2218018 0 61.6176758-19.4102783 73.2005615-58.2519531 11.5806885-38.8405762 17.3720703-94.8953857 17.3720703-168.1813965 0-76.7939453-5.7913818-133.6612549-17.3720703-170.5950928-11.5828857-36.9321289-35.9787598-55.3981934-73.2005615-55.3981934-37.2350464 0-61.8547974 18.4660645-73.8660278 55.3981934-12.0223999 36.9338379-18.0269775 93.8011475-18.0269775 170.5950928C910.305481 1424.7727051 916.3100586 1480.8275146 928.3324585 1519.6680908zM1673.7973633 1107.9061279c32.6866455 57.1569824 49.0311279 138.3587646 49.0311279 243.5805664 0 105.232666-16.3444824 186.2833252-49.0311279 243.1411133-32.6845703 56.8682861-89.6175537 85.2971191-170.8081055 85.2971191-81.201416 0-138.1324463-28.428833-170.8082275-85.2971191-32.6973877-56.8577881-49.0307617-137.9084473-49.0307617-243.1411133 0-105.2218018 16.333374-186.423584 49.0307617-243.5805664 32.6757812-57.1593018 89.6068115-85.7369385 170.8082275-85.7369385C1584.1798096 1022.1691895 1641.112793 1050.7468262 1673.7973633 1107.9061279zM1429.1231689 1519.6680908c12.0112305 38.8416748 36.6334229 58.2519531 73.8660889 58.2519531 37.2218018 0 61.6199951-19.4102783 73.2005615-58.2519531 11.5830078-38.8405762 17.3724365-94.8953857 17.3724365-168.1813965 0-76.7939453-5.7894287-133.6612549-17.3724365-170.5950928-11.5805664-36.9321289-35.9787598-55.3981934-73.2005615-55.3981934-37.232666 0-61.8548584 18.4660645-73.8660889 55.3981934-12.0200195 36.9338379-18.0266113 93.8011475-18.0266113 170.5950928C1411.0965576 1424.7727051 1417.1031494 1480.8275146 1429.1231689 1519.6680908z" class="color50c6a1 svgShape"></path><polygon fill="#ffaa9d" points="1345.266 1662.181 1349.426 1683.362 1278.318 1683.362 1273.779 1662.181" class="colorffaa9d svgShape"></polygon><path fill="#0b2252" d="M1349.4261475,1683.3624268l3.3720703,16.5217285
			c0.2120361,1.0394287-0.5821533,2.0118408-1.6428223,2.0118408h-79.7131348c-0.9682617,0-1.6031494-1.0123291-1.1813965-1.8841553
			l8.0567627-16.6494141H1349.4261475z" class="color0b2252 svgShape"></path><polygon fill="#ffaa9d" points="1237.263 1662.181 1241.423 1683.362 1170.315 1683.362 1165.776 1662.181" class="colorffaa9d svgShape"></polygon><path fill="#0b2252" d="M1241.4233398,1683.3624268l3.3721924,16.5217285
			c0.2116699,1.0394287-0.5823975,2.0118408-1.6429443,2.0118408h-79.7130127c-0.9682617,0-1.6032715-1.0123291-1.1813965-1.8841553
			l8.0567627-16.6494141H1241.4233398z" class="color0b2252 svgShape"></path><linearGradient id="c" x1="198.684" x2="195.35" y1="1676.681" y2="1450.985" gradientTransform="matrix(-1 0 0 1 1452.913 0)" gradientUnits="userSpaceOnUse"><stop offset="0" stop-color="#14336d" class="stopColor14336d svgShape"></stop><stop offset=".966" stop-color="#0e2253" class="stopColor0e2253 svgShape"></stop></linearGradient><path fill="url(#c)" d="M1352.2412109,1331.3326416
			c0,0-21.0372314,154.1225586-14.4093018,223.3480225c6.6280518,69.2250977,13.9925537,115.6209717,13.9925537,115.6209717
			h-81.008667c0,0-21.3566895-86.8997803-22.8294678-138.4505615c0,0-13.2559814,67.7523193-5.1552734,138.4505615h-78.7989502
			c0,0-21.6761475-247.0166016,23.9831543-340.5444336L1352.2412109,1331.3326416z"></path><linearGradient id="d" x1="1307.39" x2="1282.263" y1="1172.465" y2="1264.102" gradientUnits="userSpaceOnUse"><stop offset="0" stop-color="#3162df" class="stopColor3162df svgShape"></stop><stop offset=".965" stop-color="#173db8" class="stopColor173db8 svgShape"></stop></linearGradient><path fill="url(#d)" d="M1247.3503418,1091.8269043
			c0,0,76.3586426,12.1383057,104.6109619,78.227417c28.2520752,66.0888672,16.2473145,89.1341553,5.8590088,99.6342773
			c-10.3884277,10.5002441-31.3676758,20.2681885-31.3676758,20.2681885L1247.3503418,1091.8269043z"></path><linearGradient id="e" x1="1312.645" x2="1139.566" y1="1190.362" y2="1346.962" gradientUnits="userSpaceOnUse"><stop offset="0" stop-color="#3162df" class="stopColor3162df svgShape"></stop><stop offset=".965" stop-color="#173db8" class="stopColor173db8 svgShape"></stop></linearGradient><path fill="url(#e)" d="M1172.3640137,1360.9605713
			c8.2432861,11.0114746,182.9084473,4.0002441,186.9266357-24.1253662
			c4.0178223-28.1257324-30.4887695-204.6419678-67.1542969-229.3725586
			c-34.2962646-23.1320801-58.1977539-18.6713867-80.3039551-13.4080811s-35.385498,47.2001953-37.5383301,86.6811523
			C1172.1413574,1220.2166748,1163.8887939,1349.6395264,1172.3640137,1360.9605713z"></path><path fill="#ffaa9d" d="M1189.2451172,1045.5974121l-3.8424072,27.5313721l4.1343994,0.3814697
				c0,0,0.4628906,23.2374268,17.0292969,21.6383057c4.7595215-0.4594727,11.1571045-3.6434326,12.7606201-2.6497803
				c1.9064941,1.1813965,2.0013428,7.5393066,2.2347412,9.3997803c0.8947754,7.1276855,25.9465332,3.1522217,22.9071045-4.4160156
				c-2.8856201-7.1843262-7.2937012-17.0566406-5.8016357-19.460083c5.2036133-8.3809814,9.112793-30.3154297-12.1948242-40.4584961
				C1209.4959717,1029.4825439,1190.6186523,1036.1831055,1189.2451172,1045.5974121z" class="colorffaa9d svgShape"></path><path fill="#ff9f91" d="M1244.4685059,1097.4825439c-2.8852539-7.1843262-7.293335-17.0566406-5.8012695-19.460083
				c0,0-11.1202393,13.1959229-20.0039062,14.2963867c-0.0179443,0.0024414-0.0288086,0.0112305-0.0467529,0.013916
				c0.2808838,0.0175781,0.5356445,0.0579834,0.7104492,0.1660156c1.9064941,1.1813965,2.0013428,7.5393066,2.2347412,9.3997803
				C1222.456543,1109.0262451,1247.5083008,1105.0507812,1244.4685059,1097.4825439z" class="colorff9f91 svgShape"></path><path fill="#14336a" d="M1224.8634033,1063.7652588c10.6071777-0.4833984,1.2773438,21.8598633,12.8182373,22.5111084
				c11.5410156,0.6507568,22.6292725-23.375,16.6280518-43.7119141
				c-6.0008545-20.3369751-22.1102295-21.2507324-37.6612549-20.5125122
				c-15.5516357,0.7382812-35.0710449,5.3019409-36.4920654,16.8164673
				c-3.4180908,27.7076416,32.2574463,8.5412598,33.3883057,17.1413574
				c0.8747559,6.651001,1.1357422,25.6032715-5.5976562,25.2038574c-6.7330322-0.3997803-12.8494873-6.7550049-18.2996826-5.9985352
				c-3.1424561,0.4364014-16.0186768,35.7331543,5.6793213,39.6639404
				c21.4644775,3.8884277,29.3070068-14.5098877,26.6890869-30.6585693
				C1219.5255127,1068.8608398,1219.685791,1064.0010986,1224.8634033,1063.7652588z" class="color14336a svgShape"></path><path fill="#ffaa9d" d="M1000.7971802,1146.0152588c0,0-17.6945801-30.7313232-21.1235962-43.53125
			c-3.4290161-12.7996826-4.7337646-18.4799805-1.7021484-19.1630859
			c3.0315552-0.6829834,20.1088867,21.3127441,23.1713257,20.821167s3.4121094-5.6522217,6.8570557-6.2055664
			c3.4449463-0.5528564,9.8421631,22.1756592,13.885437,22.901001
			C1025.9282227,1121.5626221,1006.2177124,1145.5375977,1000.7971802,1146.0152588z" class="colorffaa9d svgShape"></path><linearGradient id="f" x1="1108.73" x2="970.551" y1="1123.167" y2="1248.19" gradientTransform="rotate(-9.119 1105.106 783.197)" gradientUnits="userSpaceOnUse"><stop offset="0" stop-color="#3162df" class="stopColor3162df svgShape"></stop><stop offset=".965" stop-color="#173db8" class="stopColor173db8 svgShape"></stop></linearGradient><path fill="url(#f)" d="M1023.7890015,1112.0006104
			l-27.5541382,31.8657227c0,0,42.2581787,81.715332,126.9177246,83.8840332
			c84.6595459,2.168335,157.3726807-42.8262939,155.5925293-95.8942871
			c-1.4069824-41.942749-74.1237793-10.1633301-100.4208984,2.725708
			C1152.0269775,1147.4708252,1101.697998,1167.9338379,1023.7890015,1112.0006104z"></path></svg>
